0
SECTION
2
HEADER
9
$ACADVER
1
AC1009
9
$INSUNITS
70
1
0
ENDSEC
0
SECTION
2
TABLES
0
TABLE
2
LTYPE
70
4
0
LTYPE
2
CONTINUOUS
70
0
3
Solid line
72
65
73
0
40
0.0
0
LTYPE
2
DASHED
70
0
3
Dashed __ __ __
72
65
73
2
40
0.5
49
0.25
49
-0.25
0
LTYPE
2
CENTER
70
0
3
Center ____ _ ____
72
65
73
4
40
2.0
49
1.25
49
-0.25
49
0.25
49
-0.25
0
LTYPE
2
DOT
70
0
3
Dot . . . .
72
65
73
2
40
0.2
49
0.0
49
-0.2
0
ENDTAB
0
TABLE
2
LAYER
70
12
0
LAYER
2
FOOTPRINT
70
0
62
7
6
CONTINUOUS
0
LAYER
2
OPEN_EDGE
70
0
62
7
6
DASHED
0
LAYER
2
FLOW_PRIMARY
70
0
62
5
6
CONTINUOUS
0
LAYER
2
FLOW_SECONDARY
70
0
62
3
6
DASHED
0
LAYER
2
FLOW_MATERIAL
70
0
62
2
6
DOT
0
LAYER
2
FLOW_AIR
70
0
62
6
6
CENTER
0
LAYER
2
FLOW_ARROWS
70
0
62
5
6
CONTINUOUS
0
LAYER
2
ENTRY
70
0
62
4
6
CONTINUOUS
0
LAYER
2
ZONES_GHOST
70
0
62
8
6
DASHED
0
LAYER
2
NOTES
70
0
62
7
6
CONTINUOUS
0
ENDTAB
0
ENDSEC
0
SECTION
2
ENTITIES
0
LINE
8
OPEN_EDGE
10
0.0
20
0.0
30
0.0
11
360.0
21
0.0
31
0.0
0
LINE
8
FOOTPRINT
10
360.0
20
0.0
30
0.0
11
360.0
21
240.0
31
0.0
0
LINE
8
FOOTPRINT
10
360.0
20
240.0
30
0.0
11
0.0
21
240.0
31
0.0
0
LINE
8
FOOTPRINT
10
0.0
20
240.0
30
0.0
11
0.0
21
0.0
31
0.0
0
TEXT
8
NOTES
10
10.0
20
250.0
30
0.0
40
7.0
1
CRAFT ROOM FLOW (360" x 240"; UNITS: INCHES)
50
0.0
0
LINE
8
ZONES_GHOST
10
0.0
20
60.0
30
0.0
11
120.0
21
60.0
31
0.0
0
LINE
8
ZONES_GHOST
10
120.0
20
60.0
30
0.0
11
120.0
21
216.0
31
0.0
0
LINE
8
ZONES_GHOST
10
0.0
20
60.0
30
0.0
11
0.0
21
216.0
31
0.0
0
LINE
8
ZONES_GHOST
10
264.0
20
24.0
30
0.0
11
360.0
21
24.0
31
0.0
0
LINE
8
ZONES_GHOST
10
264.0
20
24.0
30
0.0
11
264.0
21
216.0
31
0.0
0
LINE
8
ZONES_GHOST
10
264.0
20
156.0
30
0.0
11
360.0
21
156.0
31
0.0
0
LINE
8
ZONES_GHOST
10
132.0
20
72.0
30
0.0
11
252.0
21
72.0
31
0.0
0
LINE
8
ZONES_GHOST
10
252.0
20
72.0
30
0.0
11
252.0
21
156.0
31
0.0
0
LINE
8
ZONES_GHOST
10
252.0
20
156.0
30
0.0
11
132.0
21
156.0
31
0.0
0
LINE
8
ZONES_GHOST
10
132.0
20
156.0
30
0.0
11
132.0
21
72.0
31
0.0
0
LINE
8
ZONES_GHOST
10
0.0
20
216.0
30
0.0
11
360.0
21
216.0
31
0.0
0
TEXT
8
ZONES_GHOST
10
50.0
20
138.0
30
0.0
40
5.0
1
HER
50
0.0
0
TEXT
8
ZONES_GHOST
10
40.0
20
30.0
30
0.0
40
5.0
1
RF/ELEC
50
0.0
0
TEXT
8
ZONES_GHOST
10
300.0
20
90.0
30
0.0
40
5.0
1
FAB
50
0.0
0
TEXT
8
ZONES_GHOST
10
300.0
20
186.0
30
0.0
40
5.0
1
FUME
50
0.0
0
TEXT
8
ZONES_GHOST
10
180.0
20
114.0
30
0.0
40
5.0
1
ASSEMBLY
50
0.0
0
LINE
8
ENTRY
10
144.0
20
0.0
30
0.0
11
144.0
21
-12.0
31
0.0
0
LINE
8
ENTRY
10
144.0
20
-12.0
30
0.0
11
216.0
21
-12.0
31
0.0
0
LINE
8
ENTRY
10
216.0
20
-12.0
30
0.0
11
216.0
21
0.0
31
0.0
0
TEXT
8
ENTRY
10
160.0
20
-8.0
30
0.0
40
5.0
1
ENTRY
50
0.0
0
LINE
8
FLOW_PRIMARY
10
96.0
20
12.0
30
0.0
11
264.0
21
12.0
31
0.0
0
LINE
8
FLOW_PRIMARY
10
96.0
20
12.0
30
0.0
11
96.0
21
0.0
31
0.0
0
LINE
8
FLOW_PRIMARY
10
264.0
20
12.0
30
0.0
11
264.0
21
0.0
31
0.0
0
TEXT
8
FLOW_PRIMARY
10
150.0
20
16.0
30
0.0
40
4.0
1
PRIMARY AISLE (36" wide)
50
0.0
0
LINE
8
FLOW_SECONDARY
10
126.0
20
24.0
30
0.0
11
126.0
21
216.0
31
0.0
0
LINE
8
FLOW_SECONDARY
10
258.0
20
24.0
30
0.0
11
258.0
21
216.0
31
0.0
0
LINE
8
FLOW_SECONDARY
10
132.0
20
114.0
30
0.0
11
252.0
21
114.0
31
0.0
0
TEXT
8
FLOW_SECONDARY
10
128.0
20
50.0
30
0.0
40
3.0
1
WEST CORRIDOR
50
90.0
0
TEXT
8
FLOW_SECONDARY
10
260.0
20
50.0
30
0.0
40
3.0
1
EAST CORRIDOR
50
90.0
0
LINE
8
FLOW_ARROWS
10
180.0
20
0.0
30
0.0
11
180.0
21
60.0
31
0.0
0
LINE
8
FLOW_ARROWS
10
175.0
20
50.0
30
0.0
11
180.0
21
60.0
31
0.0
0
LINE
8
FLOW_ARROWS
10
185.0
20
50.0
30
0.0
11
180.0
21
60.0
31
0.0
0
TEXT
8
FLOW_ARROWS
10
182.0
20
40.0
30
0.0
40
3.0
1
Enter
50
0.0
0
LINE
8
FLOW_ARROWS
10
126.0
20
60.0
30
0.0
11
60.0
21
60.0
31
0.0
0
LINE
8
FLOW_ARROWS
10
70.0
20
55.0
30
0.0
11
60.0
21
60.0
31
0.0
0
LINE
8
FLOW_ARROWS
10
70.0
20
65.0
30
0.0
11
60.0
21
60.0
31
0.0
0
LINE
8
FLOW_ARROWS
10
60.0
20
60.0
30
0.0
11
60.0
21
130.0
31
0.0
0
LINE
8
FLOW_ARROWS
10
55.0
20
120.0
30
0.0
11
60.0
21
130.0
31
0.0
0
LINE
8
FLOW_ARROWS
10
65.0
20
120.0
30
0.0
11
60.0
21
130.0
31
0.0
0
TEXT
8
FLOW_ARROWS
10
65.0
20
95.0
30
0.0
40
3.0
1
To Her Zone
50
0.0
0
LINE
8
FLOW_ARROWS
10
258.0
20
60.0
30
0.0
11
300.0
21
60.0
31
0.0
0
LINE
8
FLOW_ARROWS
10
290.0
20
55.0
30
0.0
11
300.0
21
60.0
31
0.0
0
LINE
8
FLOW_ARROWS
10
290.0
20
65.0
30
0.0
11
300.0
21
60.0
31
0.0
0
LINE
8
FLOW_ARROWS
10
300.0
20
60.0
30
0.0
11
300.0
21
100.0
31
0.0
0
LINE
8
FLOW_ARROWS
10
295.0
20
90.0
30
0.0
11
300.0
21
100.0
31
0.0
0
LINE
8
FLOW_ARROWS
10
305.0
20
90.0
30
0.0
11
300.0
21
100.0
31
0.0
0
TEXT
8
FLOW_ARROWS
10
305.0
20
75.0
30
0.0
40
3.0
1
To Fab
50
0.0
0
LINE
8
FLOW_MATERIAL
10
0.0
20
-6.0
30
0.0
11
48.0
21
-6.0
31
0.0
0
LINE
8
FLOW_MATERIAL
10
48.0
20
-6.0
30
0.0
11
48.0
21
50.0
31
0.0
0
LINE
8
FLOW_MATERIAL
10
43.0
20
40.0
30
0.0
11
48.0
21
50.0
31
0.0
0
LINE
8
FLOW_MATERIAL
10
53.0
20
40.0
30
0.0
11
48.0
21
50.0
31
0.0
0
TEXT
8
FLOW_MATERIAL
10
4.0
20
-10.0
30
0.0
40
3.0
1
Materials In
50
0.0
0
LINE
8
FLOW_MATERIAL
10
80.0
20
50.0
30
0.0
11
132.0
21
90.0
31
0.0
0
LINE
8
FLOW_MATERIAL
10
122.0
20
88.0
30
0.0
11
132.0
21
90.0
31
0.0
0
LINE
8
FLOW_MATERIAL
10
130.0
20
80.0
30
0.0
11
132.0
21
90.0
31
0.0
0
LINE
8
FLOW_MATERIAL
10
252.0
20
114.0
30
0.0
11
280.0
21
114.0
31
0.0
0
LINE
8
FLOW_MATERIAL
10
270.0
20
109.0
30
0.0
11
280.0
21
114.0
31
0.0
0
LINE
8
FLOW_MATERIAL
10
270.0
20
119.0
30
0.0
11
280.0
21
114.0
31
0.0
0
LINE
8
FLOW_MATERIAL
10
312.0
20
156.0
30
0.0
11
312.0
21
186.0
31
0.0
0
LINE
8
FLOW_MATERIAL
10
307.0
20
176.0
30
0.0
11
312.0
21
186.0
31
0.0
0
LINE
8
FLOW_MATERIAL
10
317.0
20
176.0
30
0.0
11
312.0
21
186.0
31
0.0
0
TEXT
8
FLOW_MATERIAL
10
318.0
20
170.0
30
0.0
40
3.0
1
Finish
50
0.0
0
LINE
8
FLOW_MATERIAL
10
340.0
20
186.0
30
0.0
11
370.0
21
186.0
31
0.0
0
LINE
8
FLOW_MATERIAL
10
360.0
20
181.0
30
0.0
11
370.0
21
186.0
31
0.0
0
LINE
8
FLOW_MATERIAL
10
360.0
20
191.0
30
0.0
11
370.0
21
186.0
31
0.0
0
TEXT
8
FLOW_MATERIAL
10
365.0
20
178.0
30
0.0
40
3.0
1
Out
50
0.0
0
LINE
8
FLOW_AIR
10
60.0
20
200.0
30
0.0
11
200.0
21
200.0
31
0.0
0
LINE
8
FLOW_AIR
10
200.0
20
200.0
30
0.0
11
312.0
21
200.0
31
0.0
0
LINE
8
FLOW_AIR
10
312.0
20
200.0
30
0.0
11
312.0
21
228.0
31
0.0
0
LINE
8
FLOW_AIR
10
307.0
20
218.0
30
0.0
11
312.0
21
228.0
31
0.0
0
LINE
8
FLOW_AIR
10
317.0
20
218.0
30
0.0
11
312.0
21
228.0
31
0.0
0
TEXT
8
FLOW_AIR
10
130.0
20
194.0
30
0.0
40
3.0
1
AIRFLOW: Clean to Dirty
50
0.0
0
TEXT
8
FLOW_AIR
10
318.0
20
222.0
30
0.0
40
4.0
1
EXHAUST
50
0.0
0
TEXT
8
NOTES
10
10.0
20
260.0
30
0.0
40
4.0
1
BLUE=Primary Path, GREEN=Secondary, YELLOW=Material, MAGENTA=Airflow
50
0.0
0
TEXT
8
NOTES
10
10.0
20
-24.0
30
0.0
40
4.0
1
FLOW PRINCIPLES: No dead ends | Materials in SW, out NE | Clean upwind of dirty
50
0.0
0
ENDSEC
0
EOF
