0
SECTION
2
HEADER
9
$ACADVER
1
AC1009
9
$INSUNITS
70
1
0
ENDSEC
0
SECTION
2
TABLES
0
TABLE
2
LTYPE
70
2
0
LTYPE
2
CONTINUOUS
70
0
3
Solid line
72
65
73
0
40
0.0
0
LTYPE
2
DASHED
70
0
3
Dashed __ __ __
72
65
73
2
40
0.5
49
0.25
49
-0.25
0
ENDTAB
0
TABLE
2
LAYER
70
9
0
LAYER
2
FOOTPRINT
70
0
62
7
6
CONTINUOUS
0
LAYER
2
OPEN_EDGE
70
0
62
7
6
DASHED
0
LAYER
2
CABINETRY
70
0
62
7
6
CONTINUOUS
0
LAYER
2
BENCH
70
0
62
7
6
CONTINUOUS
0
LAYER
2
TABLE
70
0
62
7
6
CONTINUOUS
0
LAYER
2
STORAGE
70
0
62
7
6
CONTINUOUS
0
LAYER
2
VENT
70
0
62
7
6
CONTINUOUS
0
LAYER
2
ELECTRICAL
70
0
62
7
6
CONTINUOUS
0
LAYER
2
NOTES
70
0
62
7
6
CONTINUOUS
0
ENDTAB
0
ENDSEC
0
SECTION
2
ENTITIES
0
LINE
8
OPEN_EDGE
10
0.0
20
0.0
30
0.0
11
360.0
21
0.0
31
0.0
0
LINE
8
FOOTPRINT
10
360.0
20
0.0
30
0.0
11
360.0
21
240.0
31
0.0
0
LINE
8
FOOTPRINT
10
360.0
20
240.0
30
0.0
11
0.0
21
240.0
31
0.0
0
LINE
8
FOOTPRINT
10
0.0
20
240.0
30
0.0
11
0.0
21
0.0
31
0.0
0
TEXT
8
NOTES
10
10.0
20
-12.0
30
0.0
40
6.0
1
OPEN SIDE (NO WALL) - ADJUST IF NEEDED
50
0.0
0
LINE
8
CABINETRY
10
0.0
20
216.0
30
0.0
11
360.0
21
216.0
31
0.0
0
LINE
8
CABINETRY
10
360.0
20
216.0
30
0.0
11
360.0
21
240.0
31
0.0
0
LINE
8
CABINETRY
10
360.0
20
240.0
30
0.0
11
0.0
21
240.0
31
0.0
0
LINE
8
CABINETRY
10
0.0
20
240.0
30
0.0
11
0.0
21
216.0
31
0.0
0
TEXT
8
CABINETRY
10
6.0
20
222.0
30
0.0
40
6.0
1
CABINETRY RUN (24" DEPTH)
50
0.0
0
LINE
8
BENCH
10
0.0
20
156.0
30
0.0
11
60.0
21
156.0
31
0.0
0
LINE
8
BENCH
10
60.0
20
156.0
30
0.0
11
60.0
21
276.0
31
0.0
0
LINE
8
BENCH
10
60.0
20
276.0
30
0.0
11
0.0
21
276.0
31
0.0
0
LINE
8
BENCH
10
0.0
20
276.0
30
0.0
11
0.0
21
156.0
31
0.0
0
TEXT
8
BENCH
10
6.0
20
186.0
30
0.0
40
5.0
1
ELECTRONICS / CLEAN BENCH
50
0.0
0
LINE
8
BENCH
10
330.0
20
72.0
30
0.0
11
360.0
21
72.0
31
0.0
0
LINE
8
BENCH
10
360.0
20
72.0
30
0.0
11
360.0
21
216.0
31
0.0
0
LINE
8
BENCH
10
360.0
20
216.0
30
0.0
11
330.0
21
216.0
31
0.0
0
LINE
8
BENCH
10
330.0
20
216.0
30
0.0
11
330.0
21
72.0
31
0.0
0
TEXT
8
BENCH
10
332.0
20
144.0
30
0.0
40
5.0
1
TOOL / DIRTY BENCH
50
90.0
0
LINE
8
TABLE
10
132.0
20
96.0
30
0.0
11
228.0
21
96.0
31
0.0
0
LINE
8
TABLE
10
228.0
20
96.0
30
0.0
11
228.0
21
144.0
31
0.0
0
LINE
8
TABLE
10
228.0
20
144.0
30
0.0
11
132.0
21
144.0
31
0.0
0
LINE
8
TABLE
10
132.0
20
144.0
30
0.0
11
132.0
21
96.0
31
0.0
0
TEXT
8
TABLE
10
140.0
20
115.0
30
0.0
40
5.0
1
CENTER ASSEMBLY TABLE
50
0.0
0
LINE
8
STORAGE
10
0.0
20
0.0
30
0.0
11
96.0
21
0.0
31
0.0
0
LINE
8
STORAGE
10
96.0
20
0.0
30
0.0
11
96.0
21
60.0
31
0.0
0
LINE
8
STORAGE
10
96.0
20
60.0
30
0.0
11
0.0
21
60.0
31
0.0
0
LINE
8
STORAGE
10
0.0
20
60.0
30
0.0
11
0.0
21
0.0
31
0.0
0
TEXT
8
STORAGE
10
6.0
20
30.0
30
0.0
40
5.0
1
SHEET GOODS / LUMBER STAGE
50
0.0
0
LINE
8
VENT
10
270.0
20
156.0
30
0.0
11
360.0
21
156.0
31
0.0
0
LINE
8
VENT
10
360.0
20
156.0
30
0.0
11
360.0
21
186.0
31
0.0
0
LINE
8
VENT
10
360.0
20
186.0
30
0.0
11
270.0
21
186.0
31
0.0
0
LINE
8
VENT
10
270.0
20
186.0
30
0.0
11
270.0
21
156.0
31
0.0
0
TEXT
8
VENT
10
272.0
20
171.0
30
0.0
40
5.0
1
FUME + FIBERGLASS BENCH
50
0.0
0
LINE
8
VENT
10
350.0
20
230.0
30
0.0
11
370.0
21
230.0
31
0.0
0
TEXT
8
VENT
10
355.0
20
218.0
30
0.0
40
5.0
1
VENT TO OUTSIDE
50
0.0
0
LINE
8
ELECTRICAL
10
22.0
20
226.0
30
0.0
11
26.0
21
226.0
31
0.0
0
LINE
8
ELECTRICAL
10
26.0
20
226.0
30
0.0
11
26.0
21
230.0
31
0.0
0
LINE
8
ELECTRICAL
10
26.0
20
230.0
30
0.0
11
22.0
21
230.0
31
0.0
0
LINE
8
ELECTRICAL
10
22.0
20
230.0
30
0.0
11
22.0
21
226.0
31
0.0
0
LINE
8
ELECTRICAL
10
70.0
20
226.0
30
0.0
11
74.0
21
226.0
31
0.0
0
LINE
8
ELECTRICAL
10
74.0
20
226.0
30
0.0
11
74.0
21
230.0
31
0.0
0
LINE
8
ELECTRICAL
10
74.0
20
230.0
30
0.0
11
70.0
21
230.0
31
0.0
0
LINE
8
ELECTRICAL
10
70.0
20
230.0
30
0.0
11
70.0
21
226.0
31
0.0
0
LINE
8
ELECTRICAL
10
118.0
20
226.0
30
0.0
11
122.0
21
226.0
31
0.0
0
LINE
8
ELECTRICAL
10
122.0
20
226.0
30
0.0
11
122.0
21
230.0
31
0.0
0
LINE
8
ELECTRICAL
10
122.0
20
230.0
30
0.0
11
118.0
21
230.0
31
0.0
0
LINE
8
ELECTRICAL
10
118.0
20
230.0
30
0.0
11
118.0
21
226.0
31
0.0
0
LINE
8
ELECTRICAL
10
166.0
20
226.0
30
0.0
11
170.0
21
226.0
31
0.0
0
LINE
8
ELECTRICAL
10
170.0
20
226.0
30
0.0
11
170.0
21
230.0
31
0.0
0
LINE
8
ELECTRICAL
10
170.0
20
230.0
30
0.0
11
166.0
21
230.0
31
0.0
0
LINE
8
ELECTRICAL
10
166.0
20
230.0
30
0.0
11
166.0
21
226.0
31
0.0
0
LINE
8
ELECTRICAL
10
214.0
20
226.0
30
0.0
11
218.0
21
226.0
31
0.0
0
LINE
8
ELECTRICAL
10
218.0
20
226.0
30
0.0
11
218.0
21
230.0
31
0.0
0
LINE
8
ELECTRICAL
10
218.0
20
230.0
30
0.0
11
214.0
21
230.0
31
0.0
0
LINE
8
ELECTRICAL
10
214.0
20
230.0
30
0.0
11
214.0
21
226.0
31
0.0
0
LINE
8
ELECTRICAL
10
262.0
20
226.0
30
0.0
11
266.0
21
226.0
31
0.0
0
LINE
8
ELECTRICAL
10
266.0
20
226.0
30
0.0
11
266.0
21
230.0
31
0.0
0
LINE
8
ELECTRICAL
10
266.0
20
230.0
30
0.0
11
262.0
21
230.0
31
0.0
0
LINE
8
ELECTRICAL
10
262.0
20
230.0
30
0.0
11
262.0
21
226.0
31
0.0
0
LINE
8
ELECTRICAL
10
310.0
20
226.0
30
0.0
11
314.0
21
226.0
31
0.0
0
LINE
8
ELECTRICAL
10
314.0
20
226.0
30
0.0
11
314.0
21
230.0
31
0.0
0
LINE
8
ELECTRICAL
10
314.0
20
230.0
30
0.0
11
310.0
21
230.0
31
0.0
0
LINE
8
ELECTRICAL
10
310.0
20
230.0
30
0.0
11
310.0
21
226.0
31
0.0
0
TEXT
8
ELECTRICAL
10
6.0
20
204.0
30
0.0
40
5.0
1
OUTLETS ALONG CABINETRY WALL (SYMBOLIC)
50
0.0
0
TEXT
8
NOTES
10
10.0
20
250.0
30
0.0
40
7.0
1
CRAFT ROOM LAYOUT (ASSUMED 360" x 240"; UNITS: INCHES)
50
0.0
0
TEXT
8
NOTES
10
10.0
20
242.0
30
0.0
40
5.0
1
Edit footprint to match your measured DXF if different; zones are movable rectangles.
50
0.0
0
ENDSEC
0
EOF