0
SECTION
2
HEADER
9
$ACADVER
1
AC1009
9
$INSUNITS
70
1
0
ENDSEC
0
SECTION
2
TABLES
0
TABLE
2
LTYPE
70
3
0
LTYPE
2
CONTINUOUS
70
0
3
Solid line
72
65
73
0
40
0.0
0
LTYPE
2
DASHED
70
0
3
Dashed __ __ __
72
65
73
2
40
0.5
49
0.25
49
-0.25
0
LTYPE
2
CENTER
70
0
3
Center ____ _ ____
72
65
73
4
40
2.0
49
1.25
49
-0.25
49
0.25
49
-0.25
0
ENDTAB
0
TABLE
2
LAYER
70
16
0
LAYER
2
FOOTPRINT
70
0
62
7
6
CONTINUOUS
0
LAYER
2
OPEN_EDGE
70
0
62
7
6
DASHED
0
LAYER
2
ZONE_HER
70
0
62
3
6
CONTINUOUS
0
LAYER
2
ZONE_HIS_CLEAN
70
0
62
5
6
CONTINUOUS
0
LAYER
2
ZONE_HIS_DIRTY
70
0
62
5
6
CONTINUOUS
0
LAYER
2
ZONE_FUME
70
0
62
1
6
CONTINUOUS
0
LAYER
2
ZONE_SHARED
70
0
62
2
6
CONTINUOUS
0
LAYER
2
ZONE_CIRCULATION
70
0
62
4
6
CENTER
0
LAYER
2
CABINETRY
70
0
62
8
6
CONTINUOUS
0
LAYER
2
BENCH
70
0
62
7
6
CONTINUOUS
0
LAYER
2
TABLE
70
0
62
7
6
CONTINUOUS
0
LAYER
2
STORAGE
70
0
62
8
6
CONTINUOUS
0
LAYER
2
VENT
70
0
62
1
6
CONTINUOUS
0
LAYER
2
ELECTRICAL
70
0
62
6
6
CONTINUOUS
0
LAYER
2
NOTES
70
0
62
7
6
CONTINUOUS
0
ENDTAB
0
ENDSEC
0
SECTION
2
ENTITIES
0
LINE
8
OPEN_EDGE
10
0.0
20
0.0
30
0.0
11
360.0
21
0.0
31
0.0
0
LINE
8
FOOTPRINT
10
360.0
20
0.0
30
0.0
11
360.0
21
240.0
31
0.0
0
LINE
8
FOOTPRINT
10
360.0
20
240.0
30
0.0
11
0.0
21
240.0
31
0.0
0
LINE
8
FOOTPRINT
10
0.0
20
240.0
30
0.0
11
0.0
21
0.0
31
0.0
0
TEXT
8
NOTES
10
10.0
20
250.0
30
0.0
40
7.0
1
CRAFT ROOM ZONES (360" x 240"; UNITS: INCHES)
50
0.0
0
TEXT
8
NOTES
10
10.0
20
-12.0
30
0.0
40
6.0
1
OPEN SIDE (INTERIOR ACCESS)
50
0.0
0
LINE
8
ZONE_HER
10
0.0
20
60.0
30
0.0
11
120.0
21
60.0
31
0.0
0
LINE
8
ZONE_HER
10
120.0
20
60.0
30
0.0
11
120.0
21
216.0
31
0.0
0
LINE
8
ZONE_HER
10
120.0
20
216.0
30
0.0
11
0.0
21
216.0
31
0.0
0
LINE
8
ZONE_HER
10
0.0
20
216.0
30
0.0
11
0.0
21
60.0
31
0.0
0
TEXT
8
ZONE_HER
10
10.0
20
130.0
30
0.0
40
8.0
1
HER ZONE
50
0.0
0
TEXT
8
ZONE_HER
10
10.0
20
118.0
30
0.0
40
5.0
1
Fiber Arts / Fine Arts
50
0.0
0
TEXT
8
ZONE_HER
10
10.0
20
108.0
30
0.0
40
5.0
1
Paper / Upholstery
50
0.0
0
TEXT
8
ZONE_HER
10
10.0
20
70.0
30
0.0
40
4.0
1
120 sq ft (10' x 13')
50
0.0
0
LINE
8
ZONE_HIS_CLEAN
10
0.0
20
0.0
30
0.0
11
96.0
21
0.0
31
0.0
0
LINE
8
ZONE_HIS_CLEAN
10
96.0
20
0.0
30
0.0
11
96.0
21
60.0
31
0.0
0
LINE
8
ZONE_HIS_CLEAN
10
96.0
20
60.0
30
0.0
11
0.0
21
60.0
31
0.0
0
LINE
8
ZONE_HIS_CLEAN
10
0.0
20
60.0
30
0.0
11
0.0
21
0.0
31
0.0
0
TEXT
8
ZONE_HIS_CLEAN
10
6.0
20
40.0
30
0.0
40
6.0
1
RF / ELECTRONICS
50
0.0
0
TEXT
8
ZONE_HIS_CLEAN
10
6.0
20
28.0
30
0.0
40
4.0
1
SDR / Antennas / Test
50
0.0
0
TEXT
8
ZONE_HIS_CLEAN
10
6.0
20
10.0
30
0.0
40
4.0
1
40 sq ft (8' x 5')
50
0.0
0
LINE
8
ZONE_HIS_DIRTY
10
264.0
20
24.0
30
0.0
11
360.0
21
24.0
31
0.0
0
LINE
8
ZONE_HIS_DIRTY
10
360.0
20
24.0
30
0.0
11
360.0
21
156.0
31
0.0
0
LINE
8
ZONE_HIS_DIRTY
10
360.0
20
156.0
30
0.0
11
264.0
21
156.0
31
0.0
0
LINE
8
ZONE_HIS_DIRTY
10
264.0
20
156.0
30
0.0
11
264.0
21
24.0
31
0.0
0
TEXT
8
ZONE_HIS_DIRTY
10
270.0
20
100.0
30
0.0
40
6.0
1
FABRICATION
50
0.0
0
TEXT
8
ZONE_HIS_DIRTY
10
270.0
20
88.0
30
0.0
40
4.0
1
Woodworking / Metal
50
0.0
0
TEXT
8
ZONE_HIS_DIRTY
10
270.0
20
34.0
30
0.0
40
4.0
1
88 sq ft (8' x 11')
50
0.0
0
LINE
8
ZONE_FUME
10
264.0
20
156.0
30
0.0
11
360.0
21
156.0
31
0.0
0
LINE
8
ZONE_FUME
10
360.0
20
156.0
30
0.0
11
360.0
21
216.0
31
0.0
0
LINE
8
ZONE_FUME
10
360.0
20
216.0
30
0.0
11
264.0
21
216.0
31
0.0
0
LINE
8
ZONE_FUME
10
264.0
20
216.0
30
0.0
11
264.0
21
156.0
31
0.0
0
TEXT
8
ZONE_FUME
10
270.0
20
190.0
30
0.0
40
6.0
1
FUME ZONE
50
0.0
0
TEXT
8
ZONE_FUME
10
270.0
20
178.0
30
0.0
40
4.0
1
Composites / Finishing
50
0.0
0
TEXT
8
ZONE_FUME
10
270.0
20
166.0
30
0.0
40
4.0
1
40 sq ft (8' x 5')
50
0.0
0
TEXT
8
ZONE_FUME
10
340.0
20
220.0
30
0.0
40
4.0
1
VENT
50
0.0
0
LINE
8
ZONE_FUME
10
336.0
20
216.0
30
0.0
11
336.0
21
240.0
31
0.0
0
LINE
8
ZONE_FUME
10
336.0
20
240.0
30
0.0
11
360.0
21
240.0
31
0.0
0
LINE
8
ZONE_SHARED
10
132.0
20
72.0
30
0.0
11
252.0
21
72.0
31
0.0
0
LINE
8
ZONE_SHARED
10
252.0
20
72.0
30
0.0
11
252.0
21
156.0
31
0.0
0
LINE
8
ZONE_SHARED
10
252.0
20
156.0
30
0.0
11
132.0
21
156.0
31
0.0
0
LINE
8
ZONE_SHARED
10
132.0
20
156.0
30
0.0
11
132.0
21
72.0
31
0.0
0
TEXT
8
ZONE_SHARED
10
150.0
20
120.0
30
0.0
40
6.0
1
ASSEMBLY TABLE
50
0.0
0
TEXT
8
ZONE_SHARED
10
150.0
20
108.0
30
0.0
40
4.0
1
Shared Work Surface
50
0.0
0
TEXT
8
ZONE_SHARED
10
150.0
20
82.0
30
0.0
40
4.0
1
84 sq ft (10' x 7')
50
0.0
0
LINE
8
ZONE_SHARED
10
0.0
20
216.0
30
0.0
11
360.0
21
216.0
31
0.0
0
LINE
8
ZONE_SHARED
10
360.0
20
216.0
30
0.0
11
360.0
21
240.0
31
0.0
0
LINE
8
ZONE_SHARED
10
360.0
20
240.0
30
0.0
11
0.0
21
240.0
31
0.0
0
LINE
8
ZONE_SHARED
10
0.0
20
240.0
30
0.0
11
0.0
21
216.0
31
0.0
0
TEXT
8
ZONE_SHARED
10
140.0
20
225.0
30
0.0
40
5.0
1
CABINETRY RUN (24" depth) - Shared Storage
50
0.0
0
LINE
8
ZONE_CIRCULATION
10
96.0
20
0.0
30
0.0
11
264.0
21
0.0
31
0.0
0
LINE
8
ZONE_CIRCULATION
10
264.0
20
0.0
30
0.0
11
264.0
21
24.0
31
0.0
0
LINE
8
ZONE_CIRCULATION
10
264.0
20
24.0
30
0.0
11
96.0
21
24.0
31
0.0
0
LINE
8
ZONE_CIRCULATION
10
96.0
20
24.0
30
0.0
11
96.0
21
0.0
31
0.0
0
TEXT
8
ZONE_CIRCULATION
10
140.0
20
10.0
30
0.0
40
5.0
1
PRIMARY AISLE (36" min clear)
50
0.0
0
LINE
8
ZONE_CIRCULATION
10
120.0
20
24.0
30
0.0
11
132.0
21
24.0
31
0.0
0
LINE
8
ZONE_CIRCULATION
10
132.0
20
24.0
30
0.0
11
132.0
21
72.0
31
0.0
0
LINE
8
ZONE_CIRCULATION
10
132.0
20
72.0
30
0.0
11
120.0
21
72.0
31
0.0
0
LINE
8
ZONE_CIRCULATION
10
120.0
20
72.0
30
0.0
11
120.0
21
24.0
31
0.0
0
LINE
8
ZONE_CIRCULATION
10
252.0
20
24.0
30
0.0
11
264.0
21
24.0
31
0.0
0
LINE
8
ZONE_CIRCULATION
10
264.0
20
24.0
30
0.0
11
264.0
21
72.0
31
0.0
0
LINE
8
ZONE_CIRCULATION
10
264.0
20
72.0
30
0.0
11
252.0
21
72.0
31
0.0
0
LINE
8
ZONE_CIRCULATION
10
252.0
20
72.0
30
0.0
11
252.0
21
24.0
31
0.0
0
TEXT
8
NOTES
10
10.0
20
-24.0
30
0.0
40
4.0
1
LAYER COLORS: Green=Her, Blue=His, Red=Fume, Yellow=Shared, Cyan=Circulation
50
0.0
0
TEXT
8
NOTES
10
10.0
20
260.0
30
0.0
40
4.0
1
Toggle layers to show/hide zones. All zones are on separate layers for editing.
50
0.0
0
ENDSEC
0
EOF
